# Blender 3.6.1
# www.blender.org
mtllib container.mtl
o CONTAINER1
v -0.466350 0.078052 0.307438
v 0.475744 0.078052 0.307438
v -0.466350 0.078052 -0.232676
v 0.475744 0.078052 -0.232676
v -0.466350 0.578052 0.307438
v 0.475744 0.578052 0.307438
v -0.466350 0.714632 -0.232676
v 0.475744 0.714632 -0.232676
v -0.437377 0.014489 0.291294
v -0.412656 -0.000000 0.270768
v -0.445543 -0.000000 0.244982
v -0.418057 -0.000000 0.240136
v -0.437377 0.081182 0.291294
v -0.409891 0.081182 0.286447
v -0.448307 0.081182 0.229303
v -0.420822 0.081182 0.224457
v -0.440141 -0.000000 0.275615
v -0.409891 0.014489 0.286447
v -0.448307 0.014489 0.229303
v -0.420822 0.014489 0.224457
v -0.405222 0.014489 -0.203591
v -0.436893 -0.000000 -0.198176
v -0.421305 -0.000000 -0.159401
v -0.447532 -0.000000 -0.168947
v -0.405222 0.081182 -0.203591
v -0.431448 0.081182 -0.213137
v -0.426751 0.081182 -0.144440
v -0.452977 0.081182 -0.153986
v -0.410667 -0.000000 -0.188630
v -0.431448 0.014489 -0.213137
v -0.426751 0.014489 -0.144440
v -0.452977 0.014489 -0.153986
v 0.427359 0.014489 0.224795
v 0.416213 -0.000000 0.254931
v 0.457586 -0.000000 0.260819
v 0.436207 -0.000000 0.278759
v 0.427359 0.081182 0.224795
v 0.405979 0.081182 0.242735
v 0.467820 0.081182 0.273015
v 0.446441 0.081182 0.290955
v 0.437593 -0.000000 0.236991
v 0.405979 0.014489 0.242735
v 0.467820 0.014489 0.273015
v 0.446441 0.014489 0.290955
v 0.413022 0.014489 -0.153986
v 0.444693 -0.000000 -0.159401
v 0.429106 -0.000000 -0.198176
v 0.455332 -0.000000 -0.188630
v 0.413022 0.081182 -0.153986
v 0.439248 0.081182 -0.144440
v 0.434551 0.081182 -0.213137
v 0.460777 0.081182 -0.203591
v 0.418467 -0.000000 -0.168947
v 0.439248 0.014489 -0.144440
v 0.434551 0.014489 -0.213137
v 0.460777 0.014489 -0.203591
vn -0.2302 -0.7396 0.6325
vn -0.0000 -0.0000 1.0000
vn -0.0000 -0.0000 -1.0000
vn -0.9848 -0.0000 0.1736
vn 0.6428 -0.0000 0.7660
vn 1.0000 -0.0000 -0.0000
vn 0.4326 -0.7396 0.5156
vn 0.3420 -0.0000 -0.9397
vn 0.9848 -0.0000 -0.1736
vn 0.9397 -0.0000 0.3420
vn 0.9848 -0.0000 -0.1737
vn -0.0000 -1.0000 -0.0000
vn -0.9848 -0.0000 0.1737
vn -1.0000 -0.0000 -0.0000
vn -0.9397 -0.0000 -0.3420
vn 0.7660 -0.0000 -0.6428
vn 0.2302 -0.7396 -0.6325
vn -0.1169 -0.7396 -0.6628
vn 0.1169 -0.7396 0.6628
vn -0.0000 0.9695 0.2452
vn -0.7660 -0.0000 0.6428
vn -0.3420 -0.0000 0.9397
vn -0.4326 -0.7396 -0.5156
vn 0.1736 -0.0000 0.9848
vn -0.1736 -0.0000 -0.9848
vn -0.6428 -0.0000 -0.7660
vt 0.163372 0.093730
vt 0.179862 0.102316
vt 0.163355 0.102299
vt 0.449351 0.177900
vt 0.759968 0.007532
vt 0.759968 0.177900
vt 0.449621 0.359220
vt 0.760633 0.188875
vt 0.760633 0.359220
vt 0.146474 0.123476
vt 0.121554 0.099082
vt 0.121554 0.123476
vt 0.179866 0.125958
vt 0.163322 0.102413
vt 0.163310 0.126095
vt 0.724543 0.701197
vt 0.606063 0.585594
vt 0.812191 0.585754
vt 0.179878 0.102275
vt 0.163326 0.093883
vt 0.127852 0.093813
vt 0.140167 0.093813
vt 0.146470 0.099108
vt 0.121549 0.123480
vt 0.146470 0.123480
vt 0.121549 0.099108
vt 0.605913 0.585835
vt 0.741237 0.659906
vt 0.606716 0.661321
vt 0.140171 0.093782
vt 0.127857 0.093782
vt 0.146474 0.099082
vt 0.503510 0.589232
vt 0.385809 0.705389
vt 0.384611 0.589158
vt 0.179709 0.113721
vt 0.169146 0.098466
vt 0.179726 0.098485
vt 0.169129 0.113701
vt 0.163308 0.126091
vt 0.179816 0.126108
vt 0.179883 0.093746
vt 0.458998 0.570168
vt 0.759246 0.446131
vt 0.759246 0.570168
vt 0.179879 0.093747
vt 0.449351 0.007532
vt 0.449621 0.188875
vt 0.605938 0.701093
vt 0.740435 0.584419
vt 0.590947 0.705480
vt 0.458998 0.446131
s 1
usemtl Material_#34
f 53/1/1 54/2/1 45/3/1
f 5/4/2 2/5/2 6/6/2
f 8/7/3 3/8/3 7/9/3
f 15/10/4 9/11/4 13/12/4
f 40/13/5 43/14/5 39/15/5
f 6/16/6 4/17/6 8/18/6
f 44/19/7 35/20/7 43/14/7
f 52/13/8 55/14/8 51/15/8
f 10/21/9 12/22/9 20/23/9
f 50/24/10 56/23/10 52/25/10
f 18/26/11 10/21/9 14/24/9
f 2/27/12 3/28/12 4/29/12
f 11/30/4 17/31/4 9/11/4
f 14/24/9 20/23/9 16/25/9
f 19/32/13 11/30/4 15/10/4
f 5/33/14 3/34/14 1/35/14
f 32/19/1 23/20/1 31/14/1
f 34/36/12 35/37/12 36/38/12
f 48/38/12 53/39/12 47/37/12
f 22/21/15 24/22/15 32/23/15
f 27/10/10 21/11/10 25/12/10
f 30/26/15 22/21/15 26/24/15
f 25/40/8 30/2/8 26/41/8
f 23/30/10 29/31/10 21/11/10
f 39/10/16 33/11/16 37/12/16
f 31/32/10 23/30/10 27/10/10
f 29/1/17 30/2/17 21/3/17
f 12/42/18 19/14/18 20/19/18
f 17/1/19 18/2/19 9/3/19
f 7/43/20 6/44/20 8/45/20
f 34/21/21 36/22/21 44/23/21
f 42/26/21 34/21/21 38/24/21
f 49/40/22 54/2/22 50/41/22
f 35/30/16 41/31/16 33/11/16
f 38/24/21 44/23/21 40/25/21
f 43/32/16 35/30/16 39/10/16
f 41/1/23 42/2/23 33/3/23
f 22/36/12 23/37/12 24/38/12
f 12/38/12 17/39/12 11/37/12
f 13/40/24 18/2/24 14/41/24
f 46/21/10 48/22/10 56/23/10
f 51/10/15 45/11/15 49/12/15
f 54/26/10 46/21/10 50/24/10
f 56/19/17 47/20/17 55/14/17
f 47/30/15 53/31/15 45/11/15
f 26/24/15 32/23/15 28/25/15
f 55/32/15 47/30/15 51/10/15
f 16/13/25 19/14/25 15/15/25
f 28/13/22 31/14/22 27/15/22
f 37/40/26 42/2/26 38/41/26
f 53/1/1 46/46/1 54/2/1
f 5/4/2 1/47/2 2/5/2
f 8/7/3 4/48/3 3/8/3
f 15/10/4 11/30/4 9/11/4
f 40/13/5 44/19/5 43/14/5
f 6/16/6 2/49/6 4/17/6
f 44/19/7 36/42/7 35/20/7
f 52/13/8 56/19/8 55/14/8
f 50/24/10 46/21/10 56/23/10
f 2/27/12 1/50/12 3/28/12
f 14/24/9 10/21/9 20/23/9
f 5/33/14 7/51/14 3/34/14
f 32/19/1 24/42/1 23/20/1
f 34/36/12 41/39/12 35/37/12
f 48/38/12 46/36/12 53/39/12
f 27/10/10 23/30/10 21/11/10
f 25/40/8 21/3/8 30/2/8
f 39/10/16 35/30/16 33/11/16
f 29/1/17 22/46/17 30/2/17
f 12/42/18 11/20/18 19/14/18
f 17/1/19 10/46/19 18/2/19
f 7/43/20 5/52/20 6/44/20
f 49/40/22 45/3/22 54/2/22
f 38/24/21 34/21/21 44/23/21
f 41/1/23 34/46/23 42/2/23
f 22/36/12 29/39/12 23/37/12
f 12/38/12 10/36/12 17/39/12
f 13/40/24 9/3/24 18/2/24
f 51/10/15 47/30/15 45/11/15
f 56/19/17 48/42/17 47/20/17
f 26/24/15 22/21/15 32/23/15
f 16/13/25 20/19/25 19/14/25
f 28/13/22 32/19/22 31/14/22
f 37/40/26 33/3/26 42/2/26
